<?xml version="1.0" encoding="UTF-8" standalone="no"?>
<svg
   viewBox="0 0 700.00003 281.6438"
   version="1.1"
   id="svg1"
   sodipodi:docname="zeroth-vero-logos-master.svg"
   width="700"
   height="281.6438"
   inkscape:version="1.4 (e7c3feb1, 2024-10-09)"
   xmlns:inkscape="http://www.inkscape.org/namespaces/inkscape"
   xmlns:sodipodi="http://sodipodi.sourceforge.net/DTD/sodipodi-0.dtd"
   xmlns="http://www.w3.org/2000/svg"
   xmlns:svg="http://www.w3.org/2000/svg">
  <defs
     id="defs1" />
  <sodipodi:namedview
     id="namedview1"
     pagecolor="#ffffff"
     bordercolor="#000000"
     borderopacity="0.25"
     inkscape:showpageshadow="2"
     inkscape:pageopacity="0.0"
     inkscape:pagecheckerboard="false"
     inkscape:deskcolor="#ffffff"
     inkscape:zoom="0.12850543"
     inkscape:cx="-451.3428"
     inkscape:cy="2879.2558"
     inkscape:window-width="1440"
     inkscape:window-height="789"
     inkscape:window-x="248"
     inkscape:window-y="105"
     inkscape:window-maximized="0"
     inkscape:current-layer="svg1">
    <inkscape:page
       x="0"
       y="0"
       width="700"
       height="281.6438"
       id="page2"
       margin="0"
       bleed="0" />
  </sodipodi:namedview>
  <g
     id="g70"
     transform="matrix(1.2768106,0,0,1.2768106,1525.0328,-1085.1307)"
     style="display:inline;stroke-width:0.783202"
     inkscape:label="zeroth-tech">
    <path
       id="path4"
       style="fill:#3399ff;fill-opacity:1;stroke:none;stroke-width:0.783202;stroke-opacity:1"
       d="m -905.01617,857.40531 c -7.09394,0.0632 -14.85458,7.70357 -14.89648,16.52343 l 0.1777,75.31641 c -0.1777,8.95331 8.14072,14.24 15.67774,14.18945 l 75.20117,0.039 c 8.45904,0.0115 16.19675,-7.52871 16.15039,-15.82813 l 0.01,-73.96289 c 0.0341,-9.61051 -7.96309,-16.19653 -14.8789,-16.27734 h -38.72071 z m 77.63867,12.6289 c -28.08153,23.04701 -78.41837,64.56934 -79.71875,65.64844 v -61.55078 c 0.009,-1.96351 1.26376,-3.85119 3.63282,-3.92578 z m 2.19141,14.57031 0.006,61.55652 c 0.0201,2.70497 -1.59649,4.67319 -4.31641,4.68372 l -76.06445,0.1738 c 4.3008,-3.29949 79.29223,-65.51339 80.37486,-66.41404 z"
       inkscape:label="zero" />
    <path
       id="path45"
       style="fill:#000000;stroke:none;stroke-width:0.783202;stroke-opacity:1"
       d="m -1194.38,963.48515 -0.028,-21.4112 56.892,-44.0288 c -18.9631,2.4e-4 -37.9257,-0.1911 -56.8887,-0.18297 l 0.034,-19.97703 h 87.1147 l 0.1684,21.44927 -57.3464,44.31073 h 57.338 v 19.84 c -29.02,0 -87.2843,0 -87.2843,0 z m 114.9634,-85.59938 c -8.3184,-10e-4 -16.6368,8.15957 -16.6367,16.32032 l -0.1836,50.65429 c 0,9.62144 8.3658,18.55873 17.461,18.58985 l 69.5996,0.0352 v -19.83789 l -66.7188,-0.16212 c -0.059,-4.21352 -0.1165,-8.42707 -0.1738,-12.64062 h 66.8926 v -35.70508 c 0,-8.62974 -8.2393,-17.25948 -16.4785,-17.25391 z m 3.3614,19.9961 46.8789,0.164 c 0.059,4.21287 0.1165,8.42577 0.1738,12.63867 h -47.0527 z m 78.0795,-2.52522 c 0,-8.82307 9.36,-17.64614 18.72,-17.64606 l 49.28,0.17456 v 19.84 l -48.16,0.164 v 65.596 h -19.84 z m 199.69111,50.0485 -0.006,-47.76456 -0.006,-47.76456 20,0.16912 0.1668,27.68 h 32.96232 l -0.1692,20 -32.80426,0.1658 0.1642,45.59419 32.8,0.1658 v 19.83419 l -35.68,-0.0702 c -8.72417,0 -17.44834,-9.00489 -17.42786,-18.00978 z m 64.14889,-95.36 20,-0.16912 v 27.84912 h 48.34698 c 9.2018,0.28669 18.7038,7.10992 18.69302,16.8 l 0.1792,68.96 h -20.1792 v -65.6 h -47.04 v 65.6 l -20.12727,-2e-5 z"
       inkscape:label="zer_th" />
    <path
       style="-inkscape-font-specification:Orbitron;fill:#000000;stroke:none;stroke-width:9.23426;stroke-opacity:1"
       d="m -1182.6704,1049.5736 q -3.0875,0 -5.6302,-1.453 -2.4518,-1.5437 -3.9048,-3.9956 -1.4529,-2.5427 -1.4529,-5.5394 v -58.93549 h 7.4464 v 17.25384 h 22.7932 v 7.44635 h -22.7932 v 34.2353 q 0,1.453 0.9989,2.5427 1.0897,0.9989 2.5426,0.9989 h 19.2517 v 7.4464 z m 37.0504,0 q -2.9967,0 -5.5394,-1.453 -2.4519,-1.5437 -3.9956,-3.9956 -1.453,-2.5427 -1.453,-5.5394 v -30.6937 q 0,-2.9967 1.453,-5.4486 1.5437,-2.54263 3.9956,-3.99558 2.5427,-1.54377 5.5394,-1.54377 h 31.6018 q 3.0875,0 5.5393,1.54377 2.5427,1.45295 3.9957,3.99558 1.5437,2.4519 1.5437,5.4486 v 19.0701 h -46.2221 v 11.6236 q 0,1.453 0.9989,2.5427 1.0897,0.9989 2.5427,0.9989 h 42.6805 v 7.4464 z m -3.5416,-30.058 h 38.6849 v -11.6237 q 0,-1.4529 -1.0897,-2.4518 -0.9989,-1.0898 -2.4518,-1.0898 h -31.6018 q -1.453,0 -2.5427,1.0898 -0.9989,0.9989 -0.9989,2.4518 z m 64.5656,30.058 q -2.9967,0 -5.5394,-1.453 -2.4518,-1.5437 -3.9956,-3.9956 -1.453,-2.5427 -1.453,-5.5394 v -30.6937 q 0,-2.9967 1.453,-5.4486 1.5438,-2.54263 3.9956,-3.99558 2.5427,-1.54377 5.5394,-1.54377 h 42.4989 v 7.44635 h -42.4989 q -1.4529,0 -2.5427,1.0898 -0.9989,0.9989 -0.9989,2.4518 v 30.6937 q 0,1.453 0.9989,2.5427 1.0898,0.9989 2.5427,0.9989 h 42.6806 v 7.4464 z m 51.0351,0 v 0 -69.92349 h 7.4464 v 17.25384 h 35.23415 q 2.99672,0 5.44858,1.54377 2.54267,1.45295 3.99563,3.99558 1.54376,2.4519 1.54376,5.4486 v 41.6817 h -7.44639 v -41.6817 q 0,-1.4529 -1.08972,-2.4518 -0.99891,-1.0898 -2.45186,-1.0898 h -31.60175 q -1.453,0 -2.5427,1.0898 -1.0897,0.9989 -1.0897,2.4518 v 41.6817 z m 60.66079,0 v 0 -52.66965 h 42.68056 q 2.99672,0 5.44858,1.54377 2.54267,1.45295 3.99563,3.99558 1.54376,2.4519 1.54376,5.4486 v 41.6817 h -7.4464 v -41.6817 q 0,-1.4529 -1.08971,-2.4518 -0.99891,-1.0898 -2.45186,-1.0898 h -31.60178 q -1.45295,0 -2.54267,1.0898 -1.08972,0.9989 -1.08972,2.4518 v 41.6817 z m 72.55694,0 q -2.99672,0 -5.53939,-1.453 -2.45186,-1.5437 -3.99563,-3.9956 -1.45295,-2.5427 -1.45295,-5.5394 v -30.6937 q 0,-2.9967 1.45295,-5.4486 1.54377,-2.54263 3.99563,-3.99558 2.54267,-1.54377 5.53939,-1.54377 h 31.60178 q 3.08753,0 5.53939,1.54377 2.54267,1.45295 3.99563,3.99558 1.54376,2.4519 1.54376,5.4486 v 30.6937 q 0,2.9967 -1.54376,5.5394 -1.45296,2.4519 -3.99563,3.9956 -2.45186,1.453 -5.53939,1.453 z m 0,-7.4464 h 31.60178 q 1.45295,0 2.45186,-0.9989 1.08972,-1.0897 1.08972,-2.5427 v -30.6937 q 0,-1.4529 -1.08972,-2.4518 -0.99891,-1.0898 -2.45186,-1.0898 h -31.60178 q -1.45295,0 -2.54267,1.0898 -0.99891,0.9989 -0.99891,2.4518 v 30.6937 q 0,1.453 0.99891,2.5427 1.08972,0.9989 2.54267,0.9989 z m 61.11483,7.4464 q -2.99672,0 -5.53939,-1.453 -2.45186,-1.5437 -3.99563,-3.9956 -1.45295,-2.5427 -1.45295,-5.5394 v -58.93549 h 7.44639 v 58.93549 q 0,1.453 0.99891,2.5427 1.08971,0.9989 2.54267,0.9989 h 8.89935 v 7.4464 z m 26.42561,0 q -2.99672,0 -5.53939,-1.453 -2.45187,-1.5437 -3.99563,-3.9956 -1.45296,-2.5427 -1.45296,-5.5394 v -30.6937 q 0,-2.9967 1.45296,-5.4486 1.54376,-2.54263 3.99563,-3.99558 2.54267,-1.54377 5.53939,-1.54377 h 31.60177 q 3.08753,0 5.5394,1.54377 2.54267,1.45295 3.99562,3.99558 1.54377,2.4519 1.54377,5.4486 v 30.6937 q 0,2.9967 -1.54377,5.5394 -1.45295,2.4519 -3.99562,3.9956 -2.45187,1.453 -5.5394,1.453 z m 0,-7.4464 h 31.60177 q 1.45296,0 2.45187,-0.9989 1.08971,-1.0897 1.08971,-2.5427 v -30.6937 q 0,-1.4529 -1.08971,-2.4518 -0.99891,-1.0898 -2.45187,-1.0898 h -31.60177 q -1.45296,0 -2.54267,1.0898 -0.99891,0.9989 -0.99891,2.4518 v 30.6937 q 0,1.453 0.99891,2.5427 1.08971,0.9989 2.54267,0.9989 z m 60.66084,28.2418 v 0 -7.5372 h 32.87311 q 1.45295,0 2.45186,-1.0897 1.08972,-0.9989 1.08972,-2.4519 v -9.7166 h -35.14336 q -2.99672,0 -5.53939,-1.453 -2.45186,-1.5437 -3.99563,-3.9956 -1.45295,-2.5427 -1.45295,-5.5394 v -30.6937 q 0,-2.9967 1.45295,-5.4486 1.54377,-2.54263 3.99563,-3.99558 2.54267,-1.54377 5.53939,-1.54377 h 31.60178 q 3.08753,0 5.53939,1.54377 2.54267,1.45295 3.99563,3.99558 1.45295,2.4519 1.45295,5.4486 v 51.3983 q 0,3.0875 -1.45295,5.5394 -1.45296,2.5427 -3.99563,3.9956 -2.45186,1.5438 -5.53939,1.5438 z m 1.27133,-28.2418 h 31.60178 q 1.45295,0 2.45186,-0.9989 1.08972,-1.0897 1.08972,-2.5427 v -30.6937 q 0,-1.4529 -1.08972,-2.4518 -0.99891,-1.0898 -2.45186,-1.0898 h -31.60178 q -1.45295,0 -2.54267,1.0898 -0.99891,0.9989 -0.99891,2.4518 v 30.6937 q 0,1.453 0.99891,2.5427 1.08972,0.9989 2.54267,0.9989 z m 60.84255,28.3326 v 0 -7.5372 h 32.87311 q 1.45295,0 2.45186,-1.0897 1.08972,-0.9989 1.08972,-2.4519 v -9.8074 h -35.14336 q -2.99672,0 -5.53939,-1.453 -2.45186,-1.5437 -3.99563,-3.9956 -1.45295,-2.5427 -1.45295,-5.5394 v -41.50003 h 7.44639 v 41.50003 q 0,1.453 0.99891,2.5427 1.08972,0.9989 2.54267,0.9989 h 31.60178 q 1.45295,0 2.45186,-0.9989 1.08972,-1.0897 1.08972,-2.5427 v -41.50003 h 7.44639 v 62.29543 q 0,3.0876 -1.45295,5.5394 -1.45296,2.5427 -3.99563,3.9956 -2.45186,1.5438 -5.53939,1.5438 z"
       id="path69"
       aria-label="technology"
       inkscape:label="tech" />
  </g>
</svg>
