<?xml version="1.0" encoding="UTF-8" standalone="no"?>
<svg
   viewBox="0 0 699.04299 145.0575"
   version="1.1"
   id="svg1"
   sodipodi:docname="zeroth-vero-logos-master.svg"
   width="699.04297"
   height="145.0575"
   inkscape:version="1.4 (e7c3feb1, 2024-10-09)"
   xmlns:inkscape="http://www.inkscape.org/namespaces/inkscape"
   xmlns:sodipodi="http://sodipodi.sourceforge.net/DTD/sodipodi-0.dtd"
   xmlns="http://www.w3.org/2000/svg"
   xmlns:svg="http://www.w3.org/2000/svg">
  <defs
     id="defs1" />
  <sodipodi:namedview
     id="namedview1"
     pagecolor="#ffffff"
     bordercolor="#000000"
     borderopacity="0.25"
     inkscape:showpageshadow="2"
     inkscape:pageopacity="0.0"
     inkscape:pagecheckerboard="false"
     inkscape:deskcolor="#ffffff"
     inkscape:zoom="0.12850543"
     inkscape:cx="-451.3428"
     inkscape:cy="2879.2558"
     inkscape:window-width="1440"
     inkscape:window-height="789"
     inkscape:window-x="248"
     inkscape:window-y="105"
     inkscape:window-maximized="0"
     inkscape:current-layer="svg1">
    <inkscape:page
       x="0"
       y="0"
       width="699.04297"
       height="145.0575"
       id="page2"
       margin="0"
       bleed="0" />
  </sodipodi:namedview>
  <g
     id="g89"
     inkscape:label="zeroth"
     transform="translate(895.99489,-2246.7407)">
    <path
       id="path89"
       style="fill:#000000;stroke:none;stroke-width:0.783202;stroke-opacity:1"
       d="m -1200.2684,1248.0894 -0.028,-21.4112 56.892,-44.0288 c -18.9631,2e-4 -37.9257,-0.1911 -56.8887,-0.183 l 0.034,-19.977 h 87.1147 l 0.1684,21.4493 -57.3464,44.3107 h 57.338 v 19.84 c -29.02,0 -87.2843,0 -87.2843,0 z m 114.9634,-85.5994 c -8.3184,-10e-4 -16.6368,8.1596 -16.6367,16.3203 l -0.1836,50.6543 c 0,9.6215 8.3658,18.5588 17.461,18.5899 l 69.5996,0.035 v -19.8379 l -66.7188,-0.1621 c -0.059,-4.2136 -0.1165,-8.4271 -0.1738,-12.6407 h 66.8926 v -35.705 c 0,-8.6298 -8.2393,-17.2595 -16.4785,-17.2539 z m 3.3614,19.9961 46.8789,0.164 c 0.059,4.2129 0.1165,8.4258 0.1738,12.6387 h -47.0527 z m 78.0795,-2.5252 c 0,-8.8231 9.36004,-17.6461 18.72004,-17.6461 l 49.28,0.1746 v 19.84 l -48.16,0.164 v 65.596 h -19.84004 z m 199.69115,50.0485 -0.006,-47.7646 -0.006,-47.7645 20,0.1691 0.1668,27.68 h 32.96232 l -0.1692,20 -32.80426,0.1658 0.1642,45.5942 32.8,0.1658 v 19.8342 l -35.68,-0.07 c -8.72417,0 -17.44834,-9.0049 -17.42786,-18.0098 z m 64.14889,-95.36 20,-0.1691 v 27.8491 h 48.34698 c 9.2018,0.2867 18.7038,7.1099 18.69302,16.8 l 0.1792,68.96 h -20.1792 v -65.6 h -47.04 v 65.6 h -20.12727 z"
       transform="matrix(1.2768106,0,0,1.2768106,636.55624,798.22442)"
       inkscape:label="zer_th" />
    <path
       id="path90"
       style="fill:#3399ff;fill-opacity:1;stroke:none;stroke-width:0.783202;stroke-opacity:1"
       d="m -910.90453,1142.0096 c -7.09394,0.063 -14.85458,7.7035 -14.89648,16.5234 l 0.1777,75.3164 c -0.1777,8.9533 8.14072,14.24 15.67774,14.1894 l 75.20117,0.039 c 8.45904,0.012 16.19675,-7.5287 16.15039,-15.8281 l 0.01,-73.9629 c 0.0341,-9.6105 -7.96309,-16.1965 -14.8789,-16.2773 h -38.72071 z m 77.63867,12.6289 c -28.08153,23.047 -78.41837,64.5693 -79.71875,65.6484 v -61.5508 c 0.009,-1.9635 1.26376,-3.8512 3.63282,-3.9258 z m 2.19141,14.5703 0.006,61.5565 c 0.0201,2.705 -1.59649,4.6732 -4.31641,4.6837 l -76.06445,0.1738 c 4.3008,-3.2995 79.29223,-65.5134 80.37486,-66.414 z"
       transform="matrix(1.2768106,0,0,1.2768106,636.55624,798.22442)"
       inkscape:label="zero" />
  </g>
</svg>
