<?xml version="1.0" encoding="UTF-8" standalone="no"?>
<svg
   viewBox="0 0 169.48911 169.48926"
   version="1.1"
   id="svg1"
   width="169.48911"
   height="169.48926"
   xmlns="http://www.w3.org/2000/svg"
   xmlns:svg="http://www.w3.org/2000/svg">
  <defs
     id="defs1" />
    <path
       id="path91"
       style="fill:#3399ff;fill-opacity:1;stroke:none;stroke-width:1;stroke-opacity:1"
       d="m -518.47935,2545.5707 c -9.0576,0.081 -18.9665,9.836 -19.02,21.0973 l 0.2269,96.1648 c -0.2269,11.4316 10.3942,18.1818 20.0175,18.1171 l 96.0177,0.05 c 10.8006,0.015 20.6802,-9.6127 20.621,-20.2094 l 0.013,-94.4367 c 0.044,-12.2707 -10.1673,-20.6798 -18.9975,-20.783 h -49.439 z m 99.1299,16.1248 c -35.8548,29.4266 -100.1254,82.4427 -101.7857,83.8205 v -78.5887 c 0.011,-2.507 1.6135,-4.9172 4.6384,-5.0125 z m 2.798,18.6035 0.01,78.596 c 0.026,3.4537 -2.0384,5.9668 -5.5113,5.9802 l -97.1199,0.2219 c 5.4913,-4.2129 101.2412,-83.6482 102.6235,-84.7981 z"
    />
    <path
       id="rect91"
       style="fill:none;fill-opacity:0.992797;stroke-width:3.77953;stroke-linejoin:bevel"
       d="m -553.79578,2528.5408 h 169.48909 v 169.4891 h -169.48909 z"
   />
  </g>
</svg>
